<mxfile host="Electron" modified="2023-11-07T13:49:15.852Z" agent="Mozilla/5.0 (Windows NT 10.0; Win64; x64) AppleWebKit/537.36 (KHTML, like Gecko) draw.io/22.0.0 Chrome/114.0.5735.289 Electron/25.8.3 Safari/537.36" etag="Mapo4Z7A5oN6jJVbRqEv" version="22.0.0" type="device">
  <diagram name="Side-1" id="ZNZ7veJicXOk5QtnZV5F">
    <mxGraphModel dx="1032" dy="603" grid="1" gridSize="10" guides="1" tooltips="1" connect="1" arrows="1" fold="1" page="1" pageScale="1" pageWidth="827" pageHeight="1169" math="0" shadow="0">
      <root>
        <mxCell id="0" />
        <mxCell id="1" parent="0" />
        <mxCell id="BTdXep_IhC9mYz7N7Cj6-19" style="edgeStyle=orthogonalEdgeStyle;rounded=0;sketch=1;hachureGap=4;jiggle=2;curveFitting=1;orthogonalLoop=1;jettySize=auto;html=1;exitX=0.5;exitY=0;exitDx=0;exitDy=0;exitPerimeter=0;entryX=1;entryY=0.5;entryDx=0;entryDy=0;fontFamily=Architects Daughter;fontSource=https%3A%2F%2Ffonts.googleapis.com%2Fcss%3Ffamily%3DArchitects%2BDaughter;fontSize=16;" edge="1" parent="1" source="BTdXep_IhC9mYz7N7Cj6-1" target="BTdXep_IhC9mYz7N7Cj6-6">
          <mxGeometry relative="1" as="geometry">
            <Array as="points">
              <mxPoint x="610" y="385" />
              <mxPoint x="610" y="265" />
            </Array>
          </mxGeometry>
        </mxCell>
        <mxCell id="BTdXep_IhC9mYz7N7Cj6-20" style="edgeStyle=orthogonalEdgeStyle;rounded=0;sketch=1;hachureGap=4;jiggle=2;curveFitting=1;orthogonalLoop=1;jettySize=auto;html=1;exitX=0.5;exitY=0;exitDx=0;exitDy=0;exitPerimeter=0;entryX=0;entryY=0.25;entryDx=0;entryDy=0;fontFamily=Architects Daughter;fontSource=https%3A%2F%2Ffonts.googleapis.com%2Fcss%3Ffamily%3DArchitects%2BDaughter;fontSize=16;" edge="1" parent="1" source="BTdXep_IhC9mYz7N7Cj6-1" target="BTdXep_IhC9mYz7N7Cj6-2">
          <mxGeometry relative="1" as="geometry">
            <Array as="points">
              <mxPoint x="581" y="385" />
              <mxPoint x="581" y="440" />
              <mxPoint x="211" y="440" />
              <mxPoint x="211" y="253" />
            </Array>
          </mxGeometry>
        </mxCell>
        <mxCell id="BTdXep_IhC9mYz7N7Cj6-1" value="Event-backbone" style="shape=cylinder3;whiteSpace=wrap;html=1;boundedLbl=1;backgroundOutline=1;size=15;sketch=1;hachureGap=4;jiggle=2;curveFitting=1;fontFamily=Architects Daughter;fontSource=https%3A%2F%2Ffonts.googleapis.com%2Fcss%3Ffamily%3DArchitects%2BDaughter;fontSize=20;rotation=90;horizontal=0;fontStyle=1;verticalAlign=bottom;spacingBottom=-27;fillColor=#ffe6cc;strokeColor=#d79b00;" vertex="1" parent="1">
          <mxGeometry x="371" y="257.5" width="35" height="255" as="geometry" />
        </mxCell>
        <mxCell id="BTdXep_IhC9mYz7N7Cj6-14" style="edgeStyle=orthogonalEdgeStyle;rounded=0;sketch=1;hachureGap=4;jiggle=2;curveFitting=1;orthogonalLoop=1;jettySize=auto;html=1;exitX=1;exitY=0.5;exitDx=0;exitDy=0;entryX=0;entryY=0.5;entryDx=0;entryDy=0;fontFamily=Architects Daughter;fontSource=https%3A%2F%2Ffonts.googleapis.com%2Fcss%3Ffamily%3DArchitects%2BDaughter;fontSize=16;" edge="1" parent="1" source="BTdXep_IhC9mYz7N7Cj6-2" target="BTdXep_IhC9mYz7N7Cj6-6">
          <mxGeometry relative="1" as="geometry" />
        </mxCell>
        <mxCell id="BTdXep_IhC9mYz7N7Cj6-15" value="&lt;b&gt;&lt;font style=&quot;font-size: 15px;&quot;&gt;http&lt;/font&gt;&lt;/b&gt;" style="edgeLabel;html=1;align=center;verticalAlign=middle;resizable=0;points=[];fontSize=20;fontFamily=Architects Daughter;horizontal=0;" vertex="1" connectable="0" parent="BTdXep_IhC9mYz7N7Cj6-14">
          <mxGeometry x="-0.08" y="-2" relative="1" as="geometry">
            <mxPoint as="offset" />
          </mxGeometry>
        </mxCell>
        <mxCell id="BTdXep_IhC9mYz7N7Cj6-2" value="&lt;b style=&quot;font-size: 15px;&quot;&gt;MicroService A&lt;/b&gt;" style="rounded=0;whiteSpace=wrap;html=1;sketch=1;hachureGap=4;jiggle=2;curveFitting=1;fontFamily=Architects Daughter;fontSource=https%3A%2F%2Ffonts.googleapis.com%2Fcss%3Ffamily%3DArchitects%2BDaughter;fontSize=20;fillColor=#dae8fc;strokeColor=#6c8ebf;" vertex="1" parent="1">
          <mxGeometry x="240" y="240" width="120" height="50" as="geometry" />
        </mxCell>
        <mxCell id="BTdXep_IhC9mYz7N7Cj6-6" value="&lt;b style=&quot;font-size: 15px;&quot;&gt;MicroService B&lt;/b&gt;" style="rounded=0;whiteSpace=wrap;html=1;sketch=1;hachureGap=4;jiggle=2;curveFitting=1;fontFamily=Architects Daughter;fontSource=https%3A%2F%2Ffonts.googleapis.com%2Fcss%3Ffamily%3DArchitects%2BDaughter;fontSize=20;fillColor=#d5e8d4;strokeColor=#82b366;" vertex="1" parent="1">
          <mxGeometry x="440" y="240" width="120" height="50" as="geometry" />
        </mxCell>
        <mxCell id="BTdXep_IhC9mYz7N7Cj6-9" value="" style="sketch=0;pointerEvents=1;shadow=0;dashed=0;html=1;strokeColor=#2D7600;fillColor=#60a917;labelPosition=center;verticalLabelPosition=bottom;verticalAlign=top;align=center;outlineConnect=0;shape=mxgraph.veeam2.letter;hachureGap=4;jiggle=2;curveFitting=1;fontFamily=Architects Daughter;fontSource=https%3A%2F%2Ffonts.googleapis.com%2Fcss%3Ffamily%3DArchitects%2BDaughter;fontSize=20;fontColor=#ffffff;" vertex="1" parent="1">
          <mxGeometry x="450" y="320" width="28.000000000000004" height="20" as="geometry" />
        </mxCell>
        <mxCell id="BTdXep_IhC9mYz7N7Cj6-11" value="" style="sketch=0;pointerEvents=1;shadow=0;dashed=0;html=1;strokeColor=#006EAF;fillColor=#1ba1e2;labelPosition=center;verticalLabelPosition=bottom;verticalAlign=top;align=center;outlineConnect=0;shape=mxgraph.veeam2.letter;hachureGap=4;jiggle=2;curveFitting=1;fontFamily=Architects Daughter;fontSource=https%3A%2F%2Ffonts.googleapis.com%2Fcss%3Ffamily%3DArchitects%2BDaughter;fontSize=20;fontColor=#ffffff;" vertex="1" parent="1">
          <mxGeometry x="600" y="280" width="28.000000000000004" height="20" as="geometry" />
        </mxCell>
        <mxCell id="BTdXep_IhC9mYz7N7Cj6-13" value="" style="sketch=0;pointerEvents=1;shadow=0;dashed=0;html=1;strokeColor=#2D7600;fillColor=#60a917;labelPosition=center;verticalLabelPosition=bottom;verticalAlign=top;align=center;outlineConnect=0;shape=mxgraph.veeam2.letter;hachureGap=4;jiggle=2;curveFitting=1;fontFamily=Architects Daughter;fontSource=https%3A%2F%2Ffonts.googleapis.com%2Fcss%3Ffamily%3DArchitects%2BDaughter;fontSize=20;fontColor=#ffffff;" vertex="1" parent="1">
          <mxGeometry x="190" y="320" width="28.000000000000004" height="20" as="geometry" />
        </mxCell>
        <mxCell id="BTdXep_IhC9mYz7N7Cj6-16" value="" style="sketch=0;pointerEvents=1;shadow=0;dashed=0;html=1;strokeColor=#2D7600;fillColor=#60a917;labelPosition=center;verticalLabelPosition=bottom;verticalAlign=top;align=center;outlineConnect=0;shape=mxgraph.veeam2.letter;hachureGap=4;jiggle=2;curveFitting=1;fontFamily=Architects Daughter;fontSource=https%3A%2F%2Ffonts.googleapis.com%2Fcss%3Ffamily%3DArchitects%2BDaughter;fontSize=20;fontColor=#ffffff;" vertex="1" parent="1">
          <mxGeometry x="280" y="375" width="28.000000000000004" height="20" as="geometry" />
        </mxCell>
        <mxCell id="BTdXep_IhC9mYz7N7Cj6-17" value="" style="sketch=0;pointerEvents=1;shadow=0;dashed=0;html=1;strokeColor=#2D7600;fillColor=#60a917;labelPosition=center;verticalLabelPosition=bottom;verticalAlign=top;align=center;outlineConnect=0;shape=mxgraph.veeam2.letter;hachureGap=4;jiggle=2;curveFitting=1;fontFamily=Architects Daughter;fontSource=https%3A%2F%2Ffonts.googleapis.com%2Fcss%3Ffamily%3DArchitects%2BDaughter;fontSize=20;fontColor=#ffffff;fontStyle=1" vertex="1" parent="1">
          <mxGeometry x="322.5" y="375" width="28.000000000000004" height="20" as="geometry" />
        </mxCell>
        <mxCell id="BTdXep_IhC9mYz7N7Cj6-18" value="" style="sketch=0;pointerEvents=1;shadow=0;dashed=0;html=1;strokeColor=#006EAF;fillColor=#1ba1e2;labelPosition=center;verticalLabelPosition=bottom;verticalAlign=top;align=center;outlineConnect=0;shape=mxgraph.veeam2.letter;hachureGap=4;jiggle=2;curveFitting=1;fontFamily=Architects Daughter;fontSource=https%3A%2F%2Ffonts.googleapis.com%2Fcss%3Ffamily%3DArchitects%2BDaughter;fontSize=20;fontColor=#ffffff;fontStyle=1" vertex="1" parent="1">
          <mxGeometry x="360" y="375" width="28.000000000000004" height="20" as="geometry" />
        </mxCell>
        <mxCell id="BTdXep_IhC9mYz7N7Cj6-21" style="edgeStyle=orthogonalEdgeStyle;rounded=0;sketch=1;hachureGap=4;jiggle=2;curveFitting=1;orthogonalLoop=1;jettySize=auto;html=1;exitX=0.25;exitY=1;exitDx=0;exitDy=0;entryX=0.5;entryY=1;entryDx=0;entryDy=0;entryPerimeter=0;fontFamily=Architects Daughter;fontSource=https%3A%2F%2Ffonts.googleapis.com%2Fcss%3Ffamily%3DArchitects%2BDaughter;fontSize=16;" edge="1" parent="1" source="BTdXep_IhC9mYz7N7Cj6-2" target="BTdXep_IhC9mYz7N7Cj6-1">
          <mxGeometry relative="1" as="geometry" />
        </mxCell>
        <mxCell id="BTdXep_IhC9mYz7N7Cj6-24" style="edgeStyle=orthogonalEdgeStyle;rounded=0;sketch=1;hachureGap=4;jiggle=2;curveFitting=1;orthogonalLoop=1;jettySize=auto;html=1;exitX=0.25;exitY=1;exitDx=0;exitDy=0;entryX=0.5;entryY=1;entryDx=0;entryDy=0;entryPerimeter=0;fontFamily=Architects Daughter;fontSource=https%3A%2F%2Ffonts.googleapis.com%2Fcss%3Ffamily%3DArchitects%2BDaughter;fontSize=16;" edge="1" parent="1" source="BTdXep_IhC9mYz7N7Cj6-6" target="BTdXep_IhC9mYz7N7Cj6-1">
          <mxGeometry relative="1" as="geometry" />
        </mxCell>
        <mxCell id="BTdXep_IhC9mYz7N7Cj6-25" value="" style="sketch=0;pointerEvents=1;shadow=0;dashed=0;html=1;strokeColor=#006EAF;fillColor=#1ba1e2;labelPosition=center;verticalLabelPosition=bottom;verticalAlign=top;align=center;outlineConnect=0;shape=mxgraph.veeam2.letter;hachureGap=4;jiggle=2;curveFitting=1;fontFamily=Architects Daughter;fontSource=https%3A%2F%2Ffonts.googleapis.com%2Fcss%3Ffamily%3DArchitects%2BDaughter;fontSize=20;fontColor=#ffffff;" vertex="1" parent="1">
          <mxGeometry x="260" y="300" width="28.000000000000004" height="20" as="geometry" />
        </mxCell>
        <mxCell id="BTdXep_IhC9mYz7N7Cj6-26" value="" style="sketch=0;pointerEvents=1;shadow=0;dashed=0;html=1;strokeColor=#006EAF;fillColor=#1ba1e2;labelPosition=center;verticalLabelPosition=bottom;verticalAlign=top;align=center;outlineConnect=0;shape=mxgraph.veeam2.letter;hachureGap=4;jiggle=2;curveFitting=1;fontFamily=Architects Daughter;fontSource=https%3A%2F%2Ffonts.googleapis.com%2Fcss%3Ffamily%3DArchitects%2BDaughter;fontSize=20;fontColor=#ffffff;fontStyle=1" vertex="1" parent="1">
          <mxGeometry x="400" y="375" width="28.000000000000004" height="20" as="geometry" />
        </mxCell>
        <mxCell id="BTdXep_IhC9mYz7N7Cj6-27" value="" style="sketch=0;pointerEvents=1;shadow=0;dashed=0;html=1;strokeColor=#2D7600;fillColor=#60a917;labelPosition=center;verticalLabelPosition=bottom;verticalAlign=top;align=center;outlineConnect=0;shape=mxgraph.veeam2.letter;hachureGap=4;jiggle=2;curveFitting=1;fontFamily=Architects Daughter;fontSource=https%3A%2F%2Ffonts.googleapis.com%2Fcss%3Ffamily%3DArchitects%2BDaughter;fontSize=20;fontColor=#ffffff;fontStyle=1" vertex="1" parent="1">
          <mxGeometry x="440" y="375" width="28.000000000000004" height="20" as="geometry" />
        </mxCell>
      </root>
    </mxGraphModel>
  </diagram>
</mxfile>
